<mxfile host="app.diagrams.net" modified="2024-05-18T11:08:15.386Z" agent="Mozilla/5.0 (Macintosh; Intel Mac OS X 10_15_7) AppleWebKit/537.36 (KHTML, like Gecko) Chrome/118.0.0.0 Safari/537.36" etag="2R3Qthh9TddGLYjNgABK" version="24.4.4" type="github">
  <diagram id="R2lEEEUBdFMjLlhIrx00" name="Page-1">
    <mxGraphModel dx="1194" dy="760" grid="1" gridSize="10" guides="1" tooltips="1" connect="1" arrows="1" fold="1" page="1" pageScale="1" pageWidth="850" pageHeight="1100" math="0" shadow="0" extFonts="Permanent Marker^https://fonts.googleapis.com/css?family=Permanent+Marker">
      <root>
        <mxCell id="0" />
        <mxCell id="1" parent="0" />
        <mxCell id="H1iVHLyn4M4Bin94tRBk-1" value="BOOK" style="shape=table;startSize=25;container=1;collapsible=0;childLayout=tableLayout;fixedRows=1;rowLines=1;fontStyle=1;align=center;resizeLast=1;" vertex="1" parent="1">
          <mxGeometry x="20" y="254" width="160" height="91" as="geometry" />
        </mxCell>
        <mxCell id="H1iVHLyn4M4Bin94tRBk-2" style="shape=tableRow;horizontal=0;startSize=0;swimlaneHead=0;swimlaneBody=0;fillColor=none;collapsible=0;dropTarget=0;points=[[0,0.5],[1,0.5]];portConstraint=eastwest;top=0;left=0;right=0;bottom=0;" vertex="1" parent="H1iVHLyn4M4Bin94tRBk-1">
          <mxGeometry y="25" width="160" height="22" as="geometry" />
        </mxCell>
        <mxCell id="H1iVHLyn4M4Bin94tRBk-3" value="book_id" style="shape=partialRectangle;connectable=0;fillColor=none;top=0;left=0;bottom=0;right=0;align=left;spacingLeft=2;overflow=hidden;fontSize=11;" vertex="1" parent="H1iVHLyn4M4Bin94tRBk-2">
          <mxGeometry width="96" height="22" as="geometry">
            <mxRectangle width="96" height="22" as="alternateBounds" />
          </mxGeometry>
        </mxCell>
        <mxCell id="H1iVHLyn4M4Bin94tRBk-4" value="INT" style="shape=partialRectangle;connectable=0;fillColor=none;top=0;left=0;bottom=0;right=0;align=left;spacingLeft=2;overflow=hidden;fontSize=11;" vertex="1" parent="H1iVHLyn4M4Bin94tRBk-2">
          <mxGeometry x="96" width="64" height="22" as="geometry">
            <mxRectangle width="64" height="22" as="alternateBounds" />
          </mxGeometry>
        </mxCell>
        <mxCell id="H1iVHLyn4M4Bin94tRBk-5" style="shape=tableRow;horizontal=0;startSize=0;swimlaneHead=0;swimlaneBody=0;fillColor=none;collapsible=0;dropTarget=0;points=[[0,0.5],[1,0.5]];portConstraint=eastwest;top=0;left=0;right=0;bottom=0;" vertex="1" parent="H1iVHLyn4M4Bin94tRBk-1">
          <mxGeometry y="47" width="160" height="22" as="geometry" />
        </mxCell>
        <mxCell id="H1iVHLyn4M4Bin94tRBk-6" value="title" style="shape=partialRectangle;connectable=0;fillColor=none;top=0;left=0;bottom=0;right=0;align=left;spacingLeft=2;overflow=hidden;fontSize=11;" vertex="1" parent="H1iVHLyn4M4Bin94tRBk-5">
          <mxGeometry width="96" height="22" as="geometry">
            <mxRectangle width="96" height="22" as="alternateBounds" />
          </mxGeometry>
        </mxCell>
        <mxCell id="H1iVHLyn4M4Bin94tRBk-7" value="VARCHAR" style="shape=partialRectangle;connectable=0;fillColor=none;top=0;left=0;bottom=0;right=0;align=left;spacingLeft=2;overflow=hidden;fontSize=11;" vertex="1" parent="H1iVHLyn4M4Bin94tRBk-5">
          <mxGeometry x="96" width="64" height="22" as="geometry">
            <mxRectangle width="64" height="22" as="alternateBounds" />
          </mxGeometry>
        </mxCell>
        <mxCell id="H1iVHLyn4M4Bin94tRBk-8" style="shape=tableRow;horizontal=0;startSize=0;swimlaneHead=0;swimlaneBody=0;fillColor=none;collapsible=0;dropTarget=0;points=[[0,0.5],[1,0.5]];portConstraint=eastwest;top=0;left=0;right=0;bottom=0;" vertex="1" parent="H1iVHLyn4M4Bin94tRBk-1">
          <mxGeometry y="69" width="160" height="22" as="geometry" />
        </mxCell>
        <mxCell id="H1iVHLyn4M4Bin94tRBk-9" value="publication_year" style="shape=partialRectangle;connectable=0;fillColor=none;top=0;left=0;bottom=0;right=0;align=left;spacingLeft=2;overflow=hidden;fontSize=11;" vertex="1" parent="H1iVHLyn4M4Bin94tRBk-8">
          <mxGeometry width="96" height="22" as="geometry">
            <mxRectangle width="96" height="22" as="alternateBounds" />
          </mxGeometry>
        </mxCell>
        <mxCell id="H1iVHLyn4M4Bin94tRBk-10" value="INT" style="shape=partialRectangle;connectable=0;fillColor=none;top=0;left=0;bottom=0;right=0;align=left;spacingLeft=2;overflow=hidden;fontSize=11;" vertex="1" parent="H1iVHLyn4M4Bin94tRBk-8">
          <mxGeometry x="96" width="64" height="22" as="geometry">
            <mxRectangle width="64" height="22" as="alternateBounds" />
          </mxGeometry>
        </mxCell>
        <mxCell id="H1iVHLyn4M4Bin94tRBk-11" value="AUTHOR" style="shape=table;startSize=25;container=1;collapsible=0;childLayout=tableLayout;fixedRows=1;rowLines=1;fontStyle=1;align=center;resizeLast=1;" vertex="1" parent="1">
          <mxGeometry x="36" y="444" width="127" height="69" as="geometry" />
        </mxCell>
        <mxCell id="H1iVHLyn4M4Bin94tRBk-12" style="shape=tableRow;horizontal=0;startSize=0;swimlaneHead=0;swimlaneBody=0;fillColor=none;collapsible=0;dropTarget=0;points=[[0,0.5],[1,0.5]];portConstraint=eastwest;top=0;left=0;right=0;bottom=0;" vertex="1" parent="H1iVHLyn4M4Bin94tRBk-11">
          <mxGeometry y="25" width="127" height="22" as="geometry" />
        </mxCell>
        <mxCell id="H1iVHLyn4M4Bin94tRBk-13" value="author_id" style="shape=partialRectangle;connectable=0;fillColor=none;top=0;left=0;bottom=0;right=0;align=left;spacingLeft=2;overflow=hidden;fontSize=11;" vertex="1" parent="H1iVHLyn4M4Bin94tRBk-12">
          <mxGeometry width="54" height="22" as="geometry">
            <mxRectangle width="54" height="22" as="alternateBounds" />
          </mxGeometry>
        </mxCell>
        <mxCell id="H1iVHLyn4M4Bin94tRBk-14" value="INT" style="shape=partialRectangle;connectable=0;fillColor=none;top=0;left=0;bottom=0;right=0;align=left;spacingLeft=2;overflow=hidden;fontSize=11;" vertex="1" parent="H1iVHLyn4M4Bin94tRBk-12">
          <mxGeometry x="54" width="73" height="22" as="geometry">
            <mxRectangle width="73" height="22" as="alternateBounds" />
          </mxGeometry>
        </mxCell>
        <mxCell id="H1iVHLyn4M4Bin94tRBk-15" style="shape=tableRow;horizontal=0;startSize=0;swimlaneHead=0;swimlaneBody=0;fillColor=none;collapsible=0;dropTarget=0;points=[[0,0.5],[1,0.5]];portConstraint=eastwest;top=0;left=0;right=0;bottom=0;" vertex="1" parent="H1iVHLyn4M4Bin94tRBk-11">
          <mxGeometry y="47" width="127" height="22" as="geometry" />
        </mxCell>
        <mxCell id="H1iVHLyn4M4Bin94tRBk-16" value="name" style="shape=partialRectangle;connectable=0;fillColor=none;top=0;left=0;bottom=0;right=0;align=left;spacingLeft=2;overflow=hidden;fontSize=11;" vertex="1" parent="H1iVHLyn4M4Bin94tRBk-15">
          <mxGeometry width="54" height="22" as="geometry">
            <mxRectangle width="54" height="22" as="alternateBounds" />
          </mxGeometry>
        </mxCell>
        <mxCell id="H1iVHLyn4M4Bin94tRBk-17" value="VARCHAR" style="shape=partialRectangle;connectable=0;fillColor=none;top=0;left=0;bottom=0;right=0;align=left;spacingLeft=2;overflow=hidden;fontSize=11;" vertex="1" parent="H1iVHLyn4M4Bin94tRBk-15">
          <mxGeometry x="54" width="73" height="22" as="geometry">
            <mxRectangle width="73" height="22" as="alternateBounds" />
          </mxGeometry>
        </mxCell>
        <mxCell id="H1iVHLyn4M4Bin94tRBk-18" value="LIBRARY_MEMBER" style="shape=table;startSize=25;container=1;collapsible=0;childLayout=tableLayout;fixedRows=1;rowLines=1;fontStyle=1;align=center;resizeLast=1;" vertex="1" parent="1">
          <mxGeometry x="280" y="265" width="135" height="69" as="geometry" />
        </mxCell>
        <mxCell id="H1iVHLyn4M4Bin94tRBk-19" style="shape=tableRow;horizontal=0;startSize=0;swimlaneHead=0;swimlaneBody=0;fillColor=none;collapsible=0;dropTarget=0;points=[[0,0.5],[1,0.5]];portConstraint=eastwest;top=0;left=0;right=0;bottom=0;" vertex="1" parent="H1iVHLyn4M4Bin94tRBk-18">
          <mxGeometry y="25" width="135" height="22" as="geometry" />
        </mxCell>
        <mxCell id="H1iVHLyn4M4Bin94tRBk-20" value="member_id" style="shape=partialRectangle;connectable=0;fillColor=none;top=0;left=0;bottom=0;right=0;align=left;spacingLeft=2;overflow=hidden;fontSize=11;" vertex="1" parent="H1iVHLyn4M4Bin94tRBk-19">
          <mxGeometry width="54" height="22" as="geometry">
            <mxRectangle width="54" height="22" as="alternateBounds" />
          </mxGeometry>
        </mxCell>
        <mxCell id="H1iVHLyn4M4Bin94tRBk-21" value="INT" style="shape=partialRectangle;connectable=0;fillColor=none;top=0;left=0;bottom=0;right=0;align=left;spacingLeft=2;overflow=hidden;fontSize=11;" vertex="1" parent="H1iVHLyn4M4Bin94tRBk-19">
          <mxGeometry x="54" width="81" height="22" as="geometry">
            <mxRectangle width="81" height="22" as="alternateBounds" />
          </mxGeometry>
        </mxCell>
        <mxCell id="H1iVHLyn4M4Bin94tRBk-22" style="shape=tableRow;horizontal=0;startSize=0;swimlaneHead=0;swimlaneBody=0;fillColor=none;collapsible=0;dropTarget=0;points=[[0,0.5],[1,0.5]];portConstraint=eastwest;top=0;left=0;right=0;bottom=0;" vertex="1" parent="H1iVHLyn4M4Bin94tRBk-18">
          <mxGeometry y="47" width="135" height="22" as="geometry" />
        </mxCell>
        <mxCell id="H1iVHLyn4M4Bin94tRBk-23" value="name" style="shape=partialRectangle;connectable=0;fillColor=none;top=0;left=0;bottom=0;right=0;align=left;spacingLeft=2;overflow=hidden;fontSize=11;" vertex="1" parent="H1iVHLyn4M4Bin94tRBk-22">
          <mxGeometry width="54" height="22" as="geometry">
            <mxRectangle width="54" height="22" as="alternateBounds" />
          </mxGeometry>
        </mxCell>
        <mxCell id="H1iVHLyn4M4Bin94tRBk-24" value="VARCHAR" style="shape=partialRectangle;connectable=0;fillColor=none;top=0;left=0;bottom=0;right=0;align=left;spacingLeft=2;overflow=hidden;fontSize=11;" vertex="1" parent="H1iVHLyn4M4Bin94tRBk-22">
          <mxGeometry x="54" width="81" height="22" as="geometry">
            <mxRectangle width="81" height="22" as="alternateBounds" />
          </mxGeometry>
        </mxCell>
        <mxCell id="H1iVHLyn4M4Bin94tRBk-25" value="BORROWING" style="shape=table;startSize=25;container=1;collapsible=0;childLayout=tableLayout;fixedRows=1;rowLines=1;fontStyle=1;align=center;resizeLast=1;" vertex="1" parent="1">
          <mxGeometry x="162" y="20" width="124" height="135" as="geometry" />
        </mxCell>
        <mxCell id="H1iVHLyn4M4Bin94tRBk-26" style="shape=tableRow;horizontal=0;startSize=0;swimlaneHead=0;swimlaneBody=0;fillColor=none;collapsible=0;dropTarget=0;points=[[0,0.5],[1,0.5]];portConstraint=eastwest;top=0;left=0;right=0;bottom=0;" vertex="1" parent="H1iVHLyn4M4Bin94tRBk-25">
          <mxGeometry y="25" width="124" height="22" as="geometry" />
        </mxCell>
        <mxCell id="H1iVHLyn4M4Bin94tRBk-27" value="borrowing_id" style="shape=partialRectangle;connectable=0;fillColor=none;top=0;left=0;bottom=0;right=0;align=left;spacingLeft=2;overflow=hidden;fontSize=11;" vertex="1" parent="H1iVHLyn4M4Bin94tRBk-26">
          <mxGeometry width="72" height="22" as="geometry">
            <mxRectangle width="72" height="22" as="alternateBounds" />
          </mxGeometry>
        </mxCell>
        <mxCell id="H1iVHLyn4M4Bin94tRBk-28" value="INT" style="shape=partialRectangle;connectable=0;fillColor=none;top=0;left=0;bottom=0;right=0;align=left;spacingLeft=2;overflow=hidden;fontSize=11;" vertex="1" parent="H1iVHLyn4M4Bin94tRBk-26">
          <mxGeometry x="72" width="52" height="22" as="geometry">
            <mxRectangle width="52" height="22" as="alternateBounds" />
          </mxGeometry>
        </mxCell>
        <mxCell id="H1iVHLyn4M4Bin94tRBk-29" style="shape=tableRow;horizontal=0;startSize=0;swimlaneHead=0;swimlaneBody=0;fillColor=none;collapsible=0;dropTarget=0;points=[[0,0.5],[1,0.5]];portConstraint=eastwest;top=0;left=0;right=0;bottom=0;" vertex="1" parent="H1iVHLyn4M4Bin94tRBk-25">
          <mxGeometry y="47" width="124" height="22" as="geometry" />
        </mxCell>
        <mxCell id="H1iVHLyn4M4Bin94tRBk-30" value="due_date" style="shape=partialRectangle;connectable=0;fillColor=none;top=0;left=0;bottom=0;right=0;align=left;spacingLeft=2;overflow=hidden;fontSize=11;" vertex="1" parent="H1iVHLyn4M4Bin94tRBk-29">
          <mxGeometry width="72" height="22" as="geometry">
            <mxRectangle width="72" height="22" as="alternateBounds" />
          </mxGeometry>
        </mxCell>
        <mxCell id="H1iVHLyn4M4Bin94tRBk-31" value="DATE" style="shape=partialRectangle;connectable=0;fillColor=none;top=0;left=0;bottom=0;right=0;align=left;spacingLeft=2;overflow=hidden;fontSize=11;" vertex="1" parent="H1iVHLyn4M4Bin94tRBk-29">
          <mxGeometry x="72" width="52" height="22" as="geometry">
            <mxRectangle width="52" height="22" as="alternateBounds" />
          </mxGeometry>
        </mxCell>
        <mxCell id="H1iVHLyn4M4Bin94tRBk-32" style="shape=tableRow;horizontal=0;startSize=0;swimlaneHead=0;swimlaneBody=0;fillColor=none;collapsible=0;dropTarget=0;points=[[0,0.5],[1,0.5]];portConstraint=eastwest;top=0;left=0;right=0;bottom=0;" vertex="1" parent="H1iVHLyn4M4Bin94tRBk-25">
          <mxGeometry y="69" width="124" height="22" as="geometry" />
        </mxCell>
        <mxCell id="H1iVHLyn4M4Bin94tRBk-33" value="return_date" style="shape=partialRectangle;connectable=0;fillColor=none;top=0;left=0;bottom=0;right=0;align=left;spacingLeft=2;overflow=hidden;fontSize=11;" vertex="1" parent="H1iVHLyn4M4Bin94tRBk-32">
          <mxGeometry width="72" height="22" as="geometry">
            <mxRectangle width="72" height="22" as="alternateBounds" />
          </mxGeometry>
        </mxCell>
        <mxCell id="H1iVHLyn4M4Bin94tRBk-34" value="DATE" style="shape=partialRectangle;connectable=0;fillColor=none;top=0;left=0;bottom=0;right=0;align=left;spacingLeft=2;overflow=hidden;fontSize=11;" vertex="1" parent="H1iVHLyn4M4Bin94tRBk-32">
          <mxGeometry x="72" width="52" height="22" as="geometry">
            <mxRectangle width="52" height="22" as="alternateBounds" />
          </mxGeometry>
        </mxCell>
        <mxCell id="H1iVHLyn4M4Bin94tRBk-35" style="shape=tableRow;horizontal=0;startSize=0;swimlaneHead=0;swimlaneBody=0;fillColor=none;collapsible=0;dropTarget=0;points=[[0,0.5],[1,0.5]];portConstraint=eastwest;top=0;left=0;right=0;bottom=0;" vertex="1" parent="H1iVHLyn4M4Bin94tRBk-25">
          <mxGeometry y="91" width="124" height="22" as="geometry" />
        </mxCell>
        <mxCell id="H1iVHLyn4M4Bin94tRBk-36" value="book_id" style="shape=partialRectangle;connectable=0;fillColor=none;top=0;left=0;bottom=0;right=0;align=left;spacingLeft=2;overflow=hidden;fontSize=11;" vertex="1" parent="H1iVHLyn4M4Bin94tRBk-35">
          <mxGeometry width="72" height="22" as="geometry">
            <mxRectangle width="72" height="22" as="alternateBounds" />
          </mxGeometry>
        </mxCell>
        <mxCell id="H1iVHLyn4M4Bin94tRBk-37" value="INT" style="shape=partialRectangle;connectable=0;fillColor=none;top=0;left=0;bottom=0;right=0;align=left;spacingLeft=2;overflow=hidden;fontSize=11;" vertex="1" parent="H1iVHLyn4M4Bin94tRBk-35">
          <mxGeometry x="72" width="52" height="22" as="geometry">
            <mxRectangle width="52" height="22" as="alternateBounds" />
          </mxGeometry>
        </mxCell>
        <mxCell id="H1iVHLyn4M4Bin94tRBk-38" style="shape=tableRow;horizontal=0;startSize=0;swimlaneHead=0;swimlaneBody=0;fillColor=none;collapsible=0;dropTarget=0;points=[[0,0.5],[1,0.5]];portConstraint=eastwest;top=0;left=0;right=0;bottom=0;" vertex="1" parent="H1iVHLyn4M4Bin94tRBk-25">
          <mxGeometry y="113" width="124" height="22" as="geometry" />
        </mxCell>
        <mxCell id="H1iVHLyn4M4Bin94tRBk-39" value="member_id" style="shape=partialRectangle;connectable=0;fillColor=none;top=0;left=0;bottom=0;right=0;align=left;spacingLeft=2;overflow=hidden;fontSize=11;" vertex="1" parent="H1iVHLyn4M4Bin94tRBk-38">
          <mxGeometry width="72" height="22" as="geometry">
            <mxRectangle width="72" height="22" as="alternateBounds" />
          </mxGeometry>
        </mxCell>
        <mxCell id="H1iVHLyn4M4Bin94tRBk-40" value="INT" style="shape=partialRectangle;connectable=0;fillColor=none;top=0;left=0;bottom=0;right=0;align=left;spacingLeft=2;overflow=hidden;fontSize=11;" vertex="1" parent="H1iVHLyn4M4Bin94tRBk-38">
          <mxGeometry x="72" width="52" height="22" as="geometry">
            <mxRectangle width="52" height="22" as="alternateBounds" />
          </mxGeometry>
        </mxCell>
        <mxCell id="H1iVHLyn4M4Bin94tRBk-44" value="is" style="curved=1;startArrow=ERmandOne;startSize=10;;endArrow=ERmandOne;endSize=10;;exitX=0.4991455078125;exitY=1;entryX=0.5028604822834646;entryY=0;rounded=0;" edge="1" parent="1" source="H1iVHLyn4M4Bin94tRBk-1" target="H1iVHLyn4M4Bin94tRBk-11">
          <mxGeometry relative="1" as="geometry">
            <Array as="points" />
          </mxGeometry>
        </mxCell>
        <mxCell id="H1iVHLyn4M4Bin94tRBk-45" value="borrows" style="curved=1;startArrow=ERmandOne;startSize=10;;endArrow=ERmandOne;endSize=10;;exitX=-0.0037014868951612905;exitY=0.9375809130636212;entryX=0.4991455078125;entryY=0;rounded=0;" edge="1" parent="1" source="H1iVHLyn4M4Bin94tRBk-25" target="H1iVHLyn4M4Bin94tRBk-1">
          <mxGeometry relative="1" as="geometry">
            <Array as="points">
              <mxPoint x="100" y="204" />
            </Array>
          </mxGeometry>
        </mxCell>
        <mxCell id="H1iVHLyn4M4Bin94tRBk-46" value="is" style="curved=1;startArrow=ERmandOne;startSize=10;;endArrow=ERmandOne;endSize=10;;exitX=0.9957314768145161;exitY=0.9375809130636212;entryX=0.4973958333333333;entryY=0;rounded=0;" edge="1" parent="1" source="H1iVHLyn4M4Bin94tRBk-25" target="H1iVHLyn4M4Bin94tRBk-18">
          <mxGeometry relative="1" as="geometry">
            <Array as="points">
              <mxPoint x="347" y="204" />
            </Array>
          </mxGeometry>
        </mxCell>
      </root>
    </mxGraphModel>
  </diagram>
</mxfile>
